<svg version="1.1" id="Layer_1" x="0px" y="0px"
	 width="612px" height="792px" viewBox="0 0 612 792" enable-background="new 0 0 612 792" >
<g>
	<g>
		<path d="M356.5,374c0.5-6.25,3-23,3-23c-10.5-10.75-19-41-19-41l-2,24C349,344.5,356,380.25,356.5,374z M357.5,318
			c0,0,2.25,9.75,3,16c0,0,1,12,4,14c0,0,6.25-4,7-19c0,0,3.75-7,10-11c0,0,2.5-9.25-4-12h-19C358.5,306,349.75,313,357.5,318z
			 M393.5,343l-1-48h-3l-5,30v9C390.5,325.75,393.5,343,393.5,343z M388.5,344c-0.251,0.543-0.977,2.19-2.012,4.558
			C381.331,360.349,368.5,390,368.5,390l-1,68c-2.25,26.75-18,79-18,79l17-7l29-99C398.75,408,390,340.75,388.5,344z M349.5,376
			l-3-9c0,0-7,20.75-9,34s0,1,0,1s0.25,39,8,49c0,0,3.25,6,3,15s-1,46-1,46l1,7c0,0,9-43.75,9-53C357.5,466,356.25,402.75,349.5,376
			z M285.5,374c0.5,6.25,7.5-29.5,18-40l-2-24c0,0-8.5,30.25-19,41C282.5,351,285,367.75,285.5,374z M270.5,329c0.75,15,7,19,7,19
			c3-2,4-14,4-14c0.75-6.25,3-16,3-16c7.75-5-1-12-1-12h-19c-6.5,2.75-4,12-4,12C266.75,322,270.5,329,270.5,329z M257.5,334v-9
			l-5-30h-3l-1,48C248.5,343,251.5,325.75,257.5,334z M273.5,390c0,0-12.832-29.651-17.988-41.442
			c-1.035-2.367-1.761-4.014-2.012-4.558c-1.5-3.25-10.25,64-7,87l29,99l17,7c0,0-15.75-52.25-18-79L273.5,390z M295.5,367l-3,9
			c-6.75,26.75-8,90-8,90c0,9.25,9,53,9,53l1-7c0,0-0.75-37-1-46s3-15,3-15c7.75-10,8-49,8-49s2,12.25,0-1S295.5,367,295.5,367z"/>
	</g>
	<g>
		<path fill="none" stroke="#000000" stroke-miterlimit="10" d="M356.5,374c0.5-6.25,3-23,3-23c-10.5-10.75-19-41-19-41l-2,24
			C349,344.5,356,380.25,356.5,374z M357.5,318c0,0,2.25,9.75,3,16c0,0,1,12,4,14c0,0,6.25-4,7-19c0,0,3.75-7,10-11
			c0,0,2.5-9.25-4-12h-19C358.5,306,349.75,313,357.5,318z M393.5,343l-1-48h-3l-5,30v9C390.5,325.75,393.5,343,393.5,343z
			 M388.5,344c-0.251,0.543-0.977,2.19-2.012,4.558C381.331,360.349,368.5,390,368.5,390l-1,68c-2.25,26.75-18,79-18,79l17-7l29-99
			C398.75,408,390,340.75,388.5,344z M349.5,376l-3-9c0,0-7,20.75-9,34s0,1,0,1s0.25,39,8,49c0,0,3.25,6,3,15s-1,46-1,46l1,7
			c0,0,9-43.75,9-53C357.5,466,356.25,402.75,349.5,376z M285.5,374c0.5,6.25,7.5-29.5,18-40l-2-24c0,0-8.5,30.25-19,41
			C282.5,351,285,367.75,285.5,374z M270.5,329c0.75,15,7,19,7,19c3-2,4-14,4-14c0.75-6.25,3-16,3-16c7.75-5-1-12-1-12h-19
			c-6.5,2.75-4,12-4,12C266.75,322,270.5,329,270.5,329z M257.5,334v-9l-5-30h-3l-1,48C248.5,343,251.5,325.75,257.5,334z
			 M273.5,390c0,0-12.832-29.651-17.988-41.442c-1.035-2.367-1.761-4.014-2.012-4.558c-1.5-3.25-10.25,64-7,87l29,99l17,7
			c0,0-15.75-52.25-18-79L273.5,390z M295.5,367l-3,9c-6.75,26.75-8,90-8,90c0,9.25,9,53,9,53l1-7c0,0-0.75-37-1-46s3-15,3-15
			c7.75-10,8-49,8-49s2,12.25,0-1S295.5,367,295.5,367z"/>
	</g>
</g>
</svg>